<?xml version="1.0" encoding="iso-8859-1"?>
<!-- Generator: Adobe Illustrator 19.0.0, SVG Export Plug-In . SVG Version: 6.00 Build 0)  -->
<svg xmlns="http://www.w3.org/2000/svg" xmlns:xlink="http://www.w3.org/1999/xlink" version="1.1" id="Capa_1" x="0px" y="0px" viewBox="0 0 512 512" style="enable-background:new 0 0 512 512;" xml:space="preserve" width="512px" height="512px">
<g>
	<g>
		<path d="M437,0H75C33.578,0,0,33.578,0,75v30v60c0,41.42,33.578,75,75,75h35.728L181.58,98.293C184.122,93.21,189.316,90,195,90    h182c41.422,0,75-33.58,75-75C452,6.714,445.284,0,437,0z" fill="#FFFFFF"/>
	</g>
</g>
<g>
	<g>
		<path d="M377,120c-5.475,0-169.971,0-172.728,0l-60,120H347c41.422,0,75-33.58,75-75v-55.532C408.307,116.023,393.165,120,377,120    z" fill="#FFFFFF"/>
	</g>
</g>
<g>
	<g>
		<path d="M505.774,62.827c-3.925-2.812-8.95-3.603-13.52-2.051l-25.9,8.633c-4.147,6.784-8.826,13.182-14.354,18.842V165    c0,10.219-1.928,19.904-4.664,29.251l44.918,14.973c4.365,1.481,9.456,0.864,13.521-2.051C509.686,204.346,512,199.819,512,195V75    C512,70.181,509.686,65.654,505.774,62.827z" fill="#FFFFFF"/>
	</g>
</g>
<g>
	<g>
		<path d="M15,302c-8.284,0-15,6.714-15,15v180c0,8.284,6.716,15,15,15c24.853,0,45-20.147,45-45V347C60,322.147,39.853,302,15,302z    " fill="#FFFFFF"/>
	</g>
</g>
<g>
	<g>
		<path d="M155.728,270l25.854,53.709C184.131,328.792,189.316,332,195,332c0,24.853-20.147,45-45,45H90v60h60    c57.99,0,105-47.01,105-105c5.684,0,10.869-3.208,13.418-8.291L294.272,270H155.728z" fill="#FFFFFF"/>
	</g>
</g>
<g>
</g>
<g>
</g>
<g>
</g>
<g>
</g>
<g>
</g>
<g>
</g>
<g>
</g>
<g>
</g>
<g>
</g>
<g>
</g>
<g>
</g>
<g>
</g>
<g>
</g>
<g>
</g>
<g>
</g>
</svg>
